<svg version="1.1" id="Layer_1" xmlns="http://www.w3.org/2000/svg" xmlns:xlink="http://www.w3.org/1999/xlink" x="0px" y="0px"
	 width="100%" viewBox="0 0 192 224" enable-background="new 0 0 192 224" xml:space="preserve">
<path fill="#000000" opacity="1.000000" stroke="none" 
	d="
M54.762329,170.024994 
	C57.269291,144.188995 61.478802,119.113403 67.991844,94.445236 
	C70.501022,84.941704 74.609543,82.212883 84.298370,83.503136 
	C90.810020,84.370277 92.661278,87.023941 90.662766,93.470108 
	C87.898491,102.386238 85.662140,111.421585 83.826118,120.561493 
	C81.170647,133.780701 79.082092,147.090912 77.637154,160.498703 
	C77.551361,161.294785 77.626030,162.108154 77.626030,163.431015 
	C91.592690,165.596512 105.029335,165.086136 117.614059,158.688553 
	C124.351349,155.263565 128.870422,149.571472 128.405777,141.493591 
	C127.987900,134.228989 122.223969,128.765503 114.331169,127.433052 
	C111.707298,126.990082 109.052086,126.690834 106.399193,126.470291 
	C100.295280,125.962860 98.786407,124.675888 98.790565,119.768021 
	C98.795746,113.653908 101.603767,109.846916 106.871330,109.757385 
	C112.573486,109.660477 118.160805,109.029388 123.644501,107.603027 
	C130.016327,105.945656 135.900909,103.293839 140.405563,98.243111 
	C147.217392,90.605522 145.954895,80.679649 137.416534,75.031830 
	C130.901932,70.722656 123.372681,69.760941 115.919991,69.490128 
	C94.207748,68.701141 73.569244,73.046173 54.430035,83.658150 
	C53.993137,83.900383 53.570580,84.177551 53.113194,84.372345 
	C49.266186,86.010719 45.280144,88.213608 41.769558,83.976418 
	C39.001244,80.635117 40.261532,73.776466 44.250877,70.433006 
	C49.552353,65.989861 55.792450,63.096924 62.232727,60.810490 
	C88.650093,51.431751 115.502068,48.055237 143.042221,55.537556 
	C146.776672,56.552155 150.247452,58.180393 153.473358,60.257057 
	C173.110092,72.898125 172.156326,99.573013 151.679962,112.401840 
	C146.614792,115.575279 141.050537,117.630150 134.839005,119.858177 
	C138.836105,121.907906 142.337967,123.371208 145.047333,126.171028 
	C154.037811,135.461716 153.334305,152.601883 143.291702,163.488556 
	C133.084885,174.553223 119.582001,178.268402 105.325539,180.366714 
	C97.532104,181.513779 89.719543,181.407715 81.900642,181.305908 
	C78.896599,181.266815 76.765259,181.691895 74.992943,184.742416 
	C72.421234,189.168854 63.732647,190.892609 58.629517,188.526291 
	C53.476460,186.136841 53.714493,181.584915 54.239922,176.952759 
	C54.483536,174.805054 54.581688,172.640854 54.762329,170.024994 
z"/>
</svg>